<?xml version="1.0" standalone="no"?>
<!DOCTYPE svg PUBLIC "-//W3C//DTD SVG 20010904//EN"
 "http://www.w3.org/TR/2001/REC-SVG-20010904/DTD/svg10.dtd">
<svg version="1.0" xmlns="http://www.w3.org/2000/svg"
 width="260.000000pt" height="260.000000pt" viewBox="0 0 260.000000 260.000000"
 preserveAspectRatio="xMidYMid meet">
<metadata>
Created by potrace 1.11, written by Peter Selinger 2001-2013
</metadata>
<g transform="translate(0.000000,260.000000) scale(0.100000,-0.100000)"
fill="#000000" stroke="none">
<path d="M812 2128 c-6 -6 -19 -13 -28 -14 -26 -4 -84 -34 -84 -44 0 -6 -5
-10 -11 -10 -5 0 -7 5 -3 12 4 6 -20 -16 -54 -50 -34 -33 -62 -64 -62 -67 0
-4 -7 -13 -15 -21 -8 -9 -15 -24 -15 -35 0 -13 -4 -18 -12 -13 -7 5 -9 2 -5
-9 3 -9 1 -17 -5 -19 -17 -6 -21 -180 -5 -190 7 -5 8 -8 1 -8 -17 0 -9 -41 9
-52 10 -5 15 -13 12 -18 -3 -5 0 -20 7 -32 7 -13 11 -26 10 -30 -1 -5 2 -8 8
-8 5 0 10 -7 10 -16 0 -8 5 -12 10 -9 6 3 10 0 10 -7 0 -7 14 -24 31 -38 17
-14 39 -33 50 -42 10 -10 24 -18 30 -18 5 0 7 -5 3 -12 -4 -6 -3 -8 4 -5 13 9
44 -2 37 -13 -3 -5 3 -7 12 -6 10 2 21 -2 25 -7 4 -6 22 -12 40 -14 70 -6 83
-8 90 -18 5 -7 8 -7 8 0 0 6 15 10 33 11 57 2 127 15 127 24 0 5 6 7 14 4 8
-3 17 0 21 5 3 6 11 9 16 6 5 -4 9 -2 9 3 0 4 16 14 35 22 19 8 35 18 35 24 0
5 3 6 7 3 3 -4 21 4 39 18 18 14 39 25 47 25 8 0 26 9 39 20 14 10 28 16 32
13 3 -3 6 0 6 7 0 7 3 10 7 7 3 -4 12 1 20 11 9 10 12 11 7 2 -6 -12 -4 -12
12 1 10 9 33 23 49 31 72 36 86 46 76 53 -6 3 -9 10 -6 14 2 5 -7 21 -20 35
-14 15 -25 22 -25 17 0 -6 -7 -7 -17 -4 -11 4 -14 3 -9 -5 4 -7 1 -12 -8 -12
-8 0 -22 -7 -30 -16 -9 -8 -16 -11 -16 -5 0 6 -9 2 -20 -9 -11 -11 -31 -22
-45 -26 -14 -3 -25 -10 -25 -16 0 -5 -4 -6 -10 -3 -5 3 -10 1 -10 -4 0 -6 -6
-11 -13 -11 -7 0 -29 -11 -48 -25 -20 -13 -39 -21 -43 -18 -3 4 -6 1 -6 -6 0
-7 -4 -10 -9 -7 -5 3 -14 -1 -21 -9 -7 -8 -16 -12 -21 -9 -5 3 -12 -2 -15 -11
-4 -10 -13 -13 -26 -9 -13 4 -18 2 -14 -4 6 -10 -26 -25 -56 -25 -10 0 -18 -4
-18 -10 0 -6 -3 -7 -6 -4 -4 3 -15 2 -25 -3 -12 -7 -19 -6 -22 3 -4 9 -6 9 -6
0 -1 -9 -8 -10 -24 -4 -13 5 -30 5 -37 1 -9 -5 -20 -4 -27 2 -7 5 -20 8 -28 4
-8 -3 -15 -1 -15 5 0 6 -7 9 -15 6 -8 -4 -18 -1 -21 5 -12 19 -13 268 -1 261
6 -4 7 -1 1 8 -14 23 -17 62 -3 53 8 -5 9 -3 3 7 -14 23 -17 62 -3 53 8 -5 9
-3 3 7 -14 23 -17 62 -3 53 8 -5 9 -3 3 7 -14 23 -17 62 -3 53 8 -5 9 -3 3 7
-13 21 -15 49 -4 49 6 0 10 6 10 14 0 9 7 13 20 11 11 -2 20 1 20 6 0 6 4 8 9
4 5 -3 12 -1 16 4 3 6 21 9 40 7 20 -1 35 2 35 8 0 6 5 4 10 -4 5 -8 10 -11
10 -6 0 5 8 2 17 -5 11 -10 14 -10 9 -1 -10 16 26 11 48 -7 11 -9 16 -10 16
-2 0 11 48 -14 61 -33 4 -5 12 -5 19 -1 9 5 11 4 6 -3 -4 -7 -4 -12 1 -13 4 0
18 -2 30 -5 12 -2 23 2 27 11 3 8 14 15 25 15 25 0 17 37 -10 45 -10 4 -19 11
-19 16 0 5 -6 9 -13 9 -7 0 -19 6 -25 13 -7 6 -16 12 -20 12 -4 1 -17 6 -28
13 -12 6 -24 8 -28 5 -3 -3 -6 -1 -6 4 0 6 -11 10 -25 9 -13 -2 -22 0 -20 4 7
11 -177 7 -194 -4 -10 -6 -12 -5 -7 2 9 15 3 15 -12 0z"/>
<path d="M1604 2130 c-5 -5 -9 -6 -35 -9 -5 0 -7 -6 -3 -13 4 -7 3 -8 -4 -4
-14 8 -155 -58 -145 -68 4 -4 0 -4 -10 0 -9 3 -17 1 -17 -4 0 -11 -42 -29 -48
-21 -2 2 -8 -4 -13 -14 -6 -9 -14 -15 -20 -12 -5 4 -9 1 -9 -5 0 -6 -4 -8 -10
-5 -5 3 -10 1 -10 -4 0 -6 -3 -10 -7 -9 -14 3 -63 -25 -63 -35 0 -6 -3 -7 -6
-4 -4 4 -20 -3 -37 -15 -19 -13 -28 -16 -23 -7 4 7 0 5 -8 -5 -9 -11 -16 -16
-16 -10 -1 5 -7 -2 -14 -16 -13 -22 -12 -27 15 -54 27 -28 30 -28 47 -13 10
10 22 14 25 10 4 -3 7 -2 7 4 0 6 7 14 16 17 10 4 13 2 9 -7 -4 -6 2 -3 12 8
10 11 25 21 33 23 8 2 18 8 21 14 4 6 12 7 18 4 6 -4 11 -2 11 3 0 6 7 11 15
11 8 0 15 5 15 10 0 6 6 10 13 10 7 0 24 8 37 17 14 10 31 18 39 20 8 1 17 7
21 13 4 6 14 12 23 14 9 1 26 11 38 22 14 11 19 13 14 4 -5 -9 1 -7 15 5 15
13 21 15 16 5 -7 -13 -6 -13 6 0 7 8 22 17 33 18 11 2 25 8 31 13 6 5 15 4 22
-3 9 -9 12 -9 12 1 0 8 6 11 15 7 8 -3 15 0 15 7 0 7 3 8 8 2 4 -5 18 -10 32
-9 14 0 30 -2 35 -5 6 -3 21 -7 35 -9 36 -5 49 -20 45 -53 -3 -20 0 -27 7 -23
7 4 8 3 4 -4 -14 -23 -16 -56 -3 -64 9 -6 9 -8 0 -8 -7 0 -13 -5 -13 -11 0 -5
5 -7 11 -3 8 4 8 0 0 -15 -9 -16 -9 -21 1 -21 8 0 9 -3 3 -8 -12 -8 -19 -55
-7 -48 10 6 9 -31 -1 -40 -12 -12 -8 -26 5 -18 7 4 8 3 4 -4 -14 -23 -16 -56
-3 -64 9 -6 9 -8 0 -8 -7 0 -13 -5 -13 -11 0 -5 5 -7 11 -3 8 4 8 0 0 -15 -9
-16 -9 -21 1 -21 8 0 9 -3 3 -8 -12 -8 -19 -55 -7 -48 10 6 9 -30 0 -40 -4 -3
-4 -12 -2 -19 6 -15 -30 -43 -61 -48 -11 -1 -24 -5 -30 -8 -9 -5 -92 -4 -97 1
-2 1 -17 3 -35 4 -17 1 -38 8 -47 15 -8 7 -20 10 -26 6 -5 -3 -10 1 -10 9 0 9
-7 16 -16 16 -9 0 -23 8 -30 18 -10 12 -13 13 -14 3 0 -11 -3 -11 -16 -1 -12
11 -15 11 -12 -1 2 -8 -3 -13 -9 -11 -7 1 -13 -3 -13 -9 0 -5 -4 -8 -9 -4 -5
3 -12 1 -15 -4 -8 -12 38 -63 47 -54 4 3 7 1 7 -5 0 -7 7 -12 15 -12 8 0 15
-4 15 -10 0 -5 7 -10 15 -10 8 0 15 -4 15 -8 0 -5 6 -9 13 -10 28 -4 53 -10
70 -17 9 -4 24 -4 33 -1 9 4 13 2 8 -5 -4 -7 0 -9 14 -5 11 4 23 2 27 -4 3 -6
12 -7 18 -3 19 12 40 13 54 1 9 -7 14 -6 18 3 3 8 19 15 37 16 17 1 35 8 40
15 6 10 8 10 8 1 0 -8 15 -3 37 12 20 14 38 23 40 21 9 -9 123 105 117 116 -3
5 -2 7 3 6 4 -2 9 1 10 6 1 5 7 12 14 17 7 4 14 15 15 25 2 9 8 20 14 24 7 4
11 10 11 14 -1 3 -1 14 -1 24 0 14 2 15 10 2 13 -21 13 -3 -1 22 -8 14 -8 18
0 14 7 -5 10 19 9 74 -1 44 -6 80 -10 80 -4 0 -8 5 -8 11 0 5 6 7 13 4 6 -4 3
1 -7 9 -11 9 -15 16 -8 16 16 0 -54 120 -91 156 -50 48 -102 84 -121 84 -9 0
-14 5 -11 10 3 6 -3 10 -14 10 -27 0 -52 10 -46 19 2 4 -2 8 -10 8 -8 0 -11
-5 -8 -11 4 -7 2 -7 -8 0 -14 12 -204 15 -215 4z"/>
<path d="M664 1146 c-3 -8 -14 -13 -25 -11 -10 2 -19 0 -19 -5 0 -5 -11 -12
-25 -16 -14 -3 -25 -9 -25 -13 0 -3 -11 -19 -25 -34 -14 -15 -22 -27 -18 -27
4 0 1 -5 -7 -10 -10 -6 -11 -10 -3 -10 9 0 10 -7 3 -24 -6 -17 -5 -26 3 -30 9
-3 8 -5 -1 -5 -10 -1 -10 -5 2 -17 9 -8 14 -19 11 -24 -3 -5 4 -11 15 -15 11
-3 20 -13 20 -21 0 -8 9 -14 20 -14 11 0 20 -3 20 -8 0 -4 16 -12 35 -18 24
-8 32 -8 28 0 -3 6 0 5 8 -1 7 -7 24 -13 37 -13 15 0 21 -4 16 -12 -5 -8 -2
-9 11 -4 28 10 75 -15 75 -41 0 -14 -6 -23 -16 -23 -8 0 -13 -3 -10 -8 2 -4
-11 -7 -29 -6 -42 2 -100 35 -82 46 8 5 6 8 -8 9 -100 4 -135 3 -135 -2 0 -4
-7 -6 -16 -5 -9 0 -18 -7 -19 -17 -2 -9 0 -15 5 -12 4 3 11 -2 14 -11 4 -10 2
-13 -7 -9 -6 4 2 -6 18 -20 17 -15 23 -24 15 -20 -8 3 -6 0 5 -9 11 -8 25 -20
31 -25 7 -5 15 -7 18 -4 3 4 6 1 6 -6 0 -7 4 -10 9 -7 5 4 11 1 13 -6 3 -8 41
-12 121 -14 64 -1 115 2 112 6 -3 5 8 11 25 15 16 4 33 12 37 19 5 7 19 20 33
29 13 9 21 17 17 17 -3 0 2 16 13 36 11 19 16 33 10 29 -5 -3 -10 -2 -10 4 0
5 5 13 11 17 7 4 8 9 1 13 -5 3 -12 15 -14 26 -1 11 -13 30 -25 41 -12 12 -19
25 -15 29 4 4 2 5 -3 4 -20 -6 -55 12 -48 24 4 7 -1 6 -10 -2 -12 -9 -17 -10
-17 -2 0 7 -4 9 -10 6 -5 -3 -10 -1 -10 5 0 6 -5 8 -10 5 -6 -4 -17 -1 -25 5
-8 7 -15 9 -15 4 0 -5 -5 -2 -10 6 -6 9 -10 10 -10 3 0 -8 -8 -8 -32 0 -49 18
-66 42 -45 63 15 16 82 4 100 -17 9 -12 17 -19 17 -16 0 3 16 1 35 -3 24 -5
35 -4 35 4 0 6 5 4 10 -4 7 -11 10 -11 10 -2 0 10 5 10 20 2 13 -7 20 -7 20
-1 0 6 6 8 14 5 8 -3 16 3 19 16 3 12 3 19 -1 16 -3 -4 -14 11 -23 31 -10 21
-18 34 -19 30 0 -4 -11 3 -23 17 -13 14 -27 23 -31 19 -4 -4 -11 -1 -16 6 -4
8 -27 15 -51 17 -24 2 -49 6 -56 8 -7 3 -13 0 -13 -6 0 -7 -5 -6 -15 2 -12 10
-15 10 -15 -1 0 -12 -2 -12 -9 0 -6 9 -11 10 -15 2 -4 -6 -12 -11 -17 -11 -6
0 -7 5 -4 10 3 6 4 10 0 10 -3 0 -8 -6 -11 -14z"/>
<path d="M1222 1134 c-23 -16 -31 -41 -9 -28 6 4 4 -2 -6 -13 -10 -11 -20 -31
-22 -43 -3 -13 -8 -26 -13 -29 -5 -3 -11 -14 -15 -24 -5 -13 -3 -16 6 -11 8 5
7 2 -2 -9 -7 -9 -10 -17 -7 -17 4 0 0 -7 -8 -16 -9 -8 -16 -24 -16 -33 0 -10
-7 -24 -15 -31 -11 -9 -12 -16 -5 -25 8 -9 7 -14 -1 -17 -11 -4 -18 -23 -21
-55 -1 -7 -5 -13 -10 -13 -5 0 -6 -4 -3 -10 3 -5 1 -10 -6 -10 -7 0 -9 -3 -6
-7 4 -3 -1 -15 -10 -26 -10 -11 -12 -17 -5 -13 6 4 12 3 12 -2 0 -6 -8 -13
-17 -16 -15 -6 -15 -8 -3 -16 12 -8 12 -10 -3 -16 -9 -3 -17 -10 -17 -15 0 -4
7 -5 17 -2 9 4 14 2 10 -3 -6 -11 33 -11 50 -1 7 4 14 4 17 -1 8 -13 62 -8 80
7 9 7 13 17 10 22 -3 5 0 9 6 9 7 0 9 7 6 17 -4 10 -4 14 0 10 4 -4 13 -2 21
4 10 9 13 8 13 -2 0 -11 2 -11 10 1 5 8 10 10 10 5 0 -12 40 -13 57 -2 7 4 14
3 18 -3 4 -6 10 -8 15 -5 12 8 41 -6 34 -16 -3 -5 0 -9 6 -9 6 0 8 -4 5 -10
-3 -5 -1 -10 5 -10 6 0 8 -4 5 -10 -4 -6 1 -7 11 -3 12 5 15 3 9 -6 -6 -10 -3
-11 12 -2 14 7 23 7 31 -1 9 -9 12 -9 12 0 0 9 5 10 19 2 14 -7 22 -7 26 0 5
8 11 8 20 0 10 -8 15 -8 21 2 14 21 13 36 -2 42 -7 3 -11 12 -8 21 4 9 1 15
-7 15 -11 0 -11 3 1 10 8 5 10 10 3 10 -10 0 -29 40 -31 64 0 5 -6 13 -14 17
-11 7 -11 9 0 9 10 0 9 4 -3 16 -9 9 -14 22 -11 30 3 7 1 14 -4 16 -4 2 -10
12 -12 23 -1 11 -10 25 -18 32 -13 11 -13 12 0 13 12 1 11 3 -3 14 -14 11 -15
15 -5 19 8 3 6 6 -5 6 -10 1 -15 6 -12 11 8 13 -4 52 -15 45 -4 -3 -7 1 -7 8
1 29 -17 77 -29 77 -8 0 -14 5 -14 11 0 8 -5 8 -15 -1 -11 -9 -15 -9 -15 -1 0
8 -5 9 -19 1 -25 -13 -34 -13 -26 0 4 6 -4 6 -21 0 -19 -7 -29 -8 -34 -1 -4 7
-14 5 -28 -5z m101 -188 c7 4 9 4 5 -1 -4 -4 -3 -14 3 -22 9 -10 8 -13 -1 -13
-10 0 -10 -3 0 -15 7 -8 9 -15 4 -15 -5 0 -4 -4 2 -8 11 -6 18 -33 15 -57 0
-5 -22 -9 -48 -8 -60 2 -58 0 -43 18 7 8 9 15 4 15 -4 0 -3 5 3 11 6 6 9 18 6
27 -4 8 -2 13 3 10 5 -4 10 10 12 29 3 42 15 66 20 40 2 -10 8 -14 15 -11z"/>
<path d="M1652 1145 c4 -4 3 -18 -2 -31 -7 -17 -6 -24 3 -24 7 0 8 -3 2 -8 -5
-4 -10 -34 -10 -67 0 -33 5 -63 10 -67 6 -5 5 -8 -3 -8 -9 0 -10 -5 -3 -18 5
-10 6 -23 2 -30 -8 -14 -7 -54 3 -70 4 -7 4 -12 -1 -12 -4 0 -8 -40 -8 -89 l0
-88 30 0 c17 1 36 -2 42 -6 6 -4 14 -3 18 3 3 5 14 10 23 10 15 0 15 -2 2 -10
-9 -6 -10 -10 -3 -10 6 0 15 5 18 10 4 6 12 7 18 3 15 -9 49 -9 64 0 6 4 14 3
18 -3 4 -6 13 -5 25 2 14 9 22 9 33 -1 13 -10 17 -9 26 6 7 12 10 13 11 4 0
-9 6 -11 18 -6 9 4 28 9 42 11 13 1 29 10 36 18 6 9 13 14 16 11 2 -3 15 6 28
20 13 14 20 25 15 25 -5 0 0 7 11 16 10 8 12 12 4 8 -13 -7 -13 -5 -1 9 10 13
10 17 1 17 -10 0 -10 3 0 15 7 9 8 15 2 15 -5 0 -10 6 -9 13 1 32 -4 48 -13
42 -5 -3 -10 1 -10 10 0 9 -4 13 -10 10 -5 -3 -10 -2 -10 4 0 5 -8 11 -17 13
-16 3 -16 5 4 25 11 11 24 30 28 42 3 12 10 21 14 21 3 0 7 9 7 20 0 11 -4 20
-9 20 -4 0 -5 4 -2 10 9 14 -26 69 -47 76 -10 3 -18 9 -18 13 0 7 -22 10 -82
12 -16 1 -25 6 -22 11 4 6 -2 6 -13 -1 -14 -7 -23 -7 -30 0 -8 8 -13 7 -17 0
-4 -6 -12 -11 -17 -11 -6 0 -7 5 -3 11 5 8 1 8 -14 0 -15 -8 -23 -8 -28 0 -4
8 -9 8 -17 0 -12 -12 -31 -15 -24 -3 3 4 -5 7 -18 7 -13 0 -21 -3 -18 -7 2 -5
0 -8 -6 -8 -5 0 -13 5 -16 10 -4 6 -13 7 -23 1 -11 -6 -25 -5 -37 1 -11 6 -17
8 -13 3z m238 -125 c0 -6 11 -8 26 -4 18 5 25 3 21 -3 -4 -6 0 -14 8 -17 8 -3
14 -11 13 -18 -4 -18 -22 -37 -30 -31 -5 2 -8 -1 -8 -8 0 -9 -3 -9 -14 0 -9 7
-17 8 -20 2 -3 -5 -14 -8 -24 -6 -9 2 -22 4 -27 4 -6 1 -12 12 -13 27 -1 14 2
23 7 20 5 -4 7 4 3 16 -3 12 -1 19 4 15 6 -3 16 -2 24 4 20 12 30 11 30 -1z
m-28 -185 c5 -7 8 -6 8 0 0 15 40 16 40 2 0 -7 4 -6 10 3 7 11 10 11 10 2 0
-7 4 -11 9 -7 5 3 16 -2 25 -10 17 -17 7 -62 -13 -57 -6 1 -11 -2 -11 -7 0 -5
-24 -8 -53 -8 -46 0 -54 3 -64 23 -6 14 -7 21 -1 18 5 -3 9 2 8 12 -4 33 0 44
13 42 6 -2 15 -7 19 -13z"/>
</g>
</svg>
