<?xml version="1.0" encoding="utf-8"?>
<!-- Generator: Adobe Illustrator 22.0.1, SVG Export Plug-In . SVG Version: 6.00 Build 0)  -->
<svg version="1.1" id="Layer_1" xmlns="http://www.w3.org/2000/svg" xmlns:xlink="http://www.w3.org/1999/xlink" x="0px" y="0px"
	 viewBox="0 0 1366 768" style="enable-background:new 0 0 1366 768;" xml:space="preserve">
<style type="text/css">
	.st0{fill-rule:evenodd;clip-rule:evenodd;fill:#ED2124;}
	.st1{fill-rule:evenodd;clip-rule:evenodd;fill:#038BC8;}
</style>
<g>
	<path class="st0" d="M883.2,551.9c-0.2,4.9-11.8,11.5-15.5,13.9c-17.4,11-42.5,18.3-58.8,2c-15.8-15.8-11.4-45.3,5.7-55.7
		c8.6-5.2,19.7-7.6,31.3-8.6c9.3-0.8,28.4-2.5,37.1-1.5L883.2,551.9L883.2,551.9z M765.4,399.5l6.8,26.9
		c11.5-2.8,18.4-6.9,35.7-10.3c13.5-2.6,28.2-4.1,42.6-2.2c14.5,1.9,22.7,7.3,27.7,18.1c2.5,5.4,3.9,11.9,4.6,18.6l-0.2,21.7
		c-1,0.5-43.5,3.2-49.6,4c-42.5,5.4-85.2,28.5-78.5,81.9c4.1,33.2,22,48.3,55.5,52.4c18.4,2.2,30.5,0.1,45.7-6.3
		c6.4-2.7,12.4-5.8,17.8-9.3c7.3-4.5,13.6-11,15.1-11.8l4.5,22.8h34.4c0.6-7,0.1-92.3,0.1-101.8c0-17,0-34,0-51
		c0-16.5-1.2-29.5-9-41.7c-23.3-37.2-74.1-35.4-116-25.3C793.4,388.3,771.1,394.5,765.4,399.5L765.4,399.5z"/>
	<path class="st0" d="M1297.4,554.7c-3,1.7-6.1,4.7-9.5,7.2c-9.7,7-21.8,13.5-34.6,15.1c-38,4.7-46.9-34.4-34.7-54.6
		c13-21.5,54.4-20.4,78.9-20.5L1297.4,554.7L1297.4,554.7z M1179.7,399.5c0.2,4.2,5.4,23.7,7.1,26.8c6.4-1.3,20.5-7.2,35.8-10.2
		c22.3-4.4,59.1-8.1,69.8,16c4.4,9.8,7.6,37.1,4.5,40.2c-1.9,1.4-20.6,1.5-24.9,1.8c-24.6,1.6-45,3.4-66.4,14.7
		c-22.7,11.9-41.5,32.7-36.9,69.6c4.3,33.4,22.1,48.1,55.6,52.2c24.6,3.1,43.9-3.3,63.6-15.6c8.6-5.4,12.2-10.1,15.1-12l4.3,22.9
		l34.6,0V453.1c0-17.2-1.3-29.2-9.2-42.1c-22.6-37-74.7-34.5-115.7-24.9C1207.6,388.3,1185.7,394.4,1179.7,399.5L1179.7,399.5z"/>
	<path class="st0" d="M1023.8,606.3l55.2,0c1.8-0.4,5.7-9.4,6.8-11.5c2.1-4.3,3.7-8.2,5.7-12.4c3.7-8.1,7.1-17.1,10.4-25.7
		c13.3-35.7,24.1-74.7,33.3-111.9c2.3-9.2,12.9-53.5,12.9-59.8l-41.3,0c-9-0.1-5.4-1.2-7.8,17.1c-2.5,19.1-6.5,38.1-11.1,56.1
		c-3.4,13.1-26.8,96.5-31.4,101.9l-11.8-44.7c-4.4-14.9-8.5-29.2-13.1-43.8l-20.4-64.8c-2.3-7.3-4.5-15.1-7.2-21.8l-48.8-0.1
		c0.2,4.3,32.1,103.9,34.2,110.9c5.8,19,11.5,36.4,17.2,55C1012.2,569.1,1018.8,588.1,1023.8,606.3L1023.8,606.3z"/>
	<path class="st0" d="M672.9,380.2l0,191.7c0,35.6-11.6,76.3-47.4,88c2.1,4.3,17.5,20.1,21.6,26.3c12.1-2.1,29.9-13.2,36.6-19.6
		c10.2-9.7,16.6-17.2,24.1-32.7c15.2-30.9,12.7-63.6,12.7-100.6c0-75.7,0.4-151.4,0-227c-5.6-1-38.3-0.4-47.7-0.3L672.9,380.2
		L672.9,380.2z"/>
	<path class="st0" d="M282.4,413.2l-15-21.8c-4.9-7.2-9.7-15.1-14.3-23.1c-8.4-14.6-18.5-33.2-23.2-51.7
		c-8.5-33.8,12.4-54.8,30.9-76.9c2.8-3.4,6-6.5,9.1-9.7c19.3-20.3,45.7-44.7,66.3-64.7c20.9-20.5,33.5-43.1,36-76.2
		c1.3-17.3-2-54.3-14.2-61c3.6,25.9,4.5,43.6-6,69.7c-12.2,30.3-32,48.4-55,66.3c-18.8,14.6-49.5,41-65.7,56.3
		c-10.5,9.9-28.2,27.8-35.6,45.1c-10.9,25.7-0.1,42.5,11.5,60.4c5.5,8.6,11.2,15.9,17.1,23.5c6.9,8.9,13,15.1,18.6,22.1
		c5.8,7.4,13,14.2,19.4,21.3C266.1,397.2,278.5,410.5,282.4,413.2L282.4,413.2z"/>
	<path class="st1" d="M505.3,635.9c7.4,11.9,0.1,16.9-10,21.6c-44.7,20.9-195.9,24.9-243.2,25.5c-48.2,0.7-96.7-1.2-143.2-9.4
		c-7.5-1.3-40.7-6.6-42.2-15.4c-1-5.5,4.8-9.7,7.9-11.6c10.7-6.7,30.3-11.2,43.8-13.7c3.9-0.7,13.3-1.7,16.2-2.9
		c-22.5-3.3-93.9,8.7-109.5,30.9c-9.8,14,6.7,20.5,17.6,24.1c41.1,13.4,126.8,16.1,172,16.8c67.5,0.9,230,0.2,289.5-40.7
		c3.5-2.4,10.3-7.3,11-12.2C516.1,643.1,509,637.4,505.3,635.9L505.3,635.9z"/>
	<path class="st0" d="M310.5,440.7c7.2-2.5,28.4-19.8,34.1-25.7c7.5-7.8,20.2-22.1,21.3-38.8c1-15.1-9.4-34.7-15.8-44.4
		c-20.1-30.4-36.1-47.9-8.9-81.7c9.1-11.2,19-20.1,30.5-29.6c13.8-11.4,36.4-27,52.6-37.1l18.4-11.8c-9.7,1.3-35.6,11.6-45.8,15.4
		c-13.7,5.2-29.5,13-41.4,19.9c-41,23.7-81.4,60.9-64.9,112.2c11.2,34.7,43.7,55.5,41.4,81.6C330.4,416.8,315.1,432.7,310.5,440.7
		L310.5,440.7z"/>
	<path class="st1" d="M396.2,610.6c-12.6-4.8-22.1-10.3-33.4-17c-6.5-3.9-4-3.6-12.4-1.5c-34.1,8.4-89.5,8.5-125.4,7.4
		c-9.2-0.3-35.1-1.1-40.4-9.8c-3.3-5.5,1.2-9.5,3-12.6c-23.5,4.7-47.4,24.3-14.7,40.5c36.8,18.2,114.1,18.4,154.3,11.3
		C338.6,626.9,390.7,615,396.2,610.6L396.2,610.6z"/>
	<path class="st1" d="M407.1,533.9c-9.7-2.4-18.4-8.5-24.4-13.7c-5.2-4.5-3.4-3.3-14.6-1.5c-40.2,6.7-159.9,18.4-194.1,4.3
		c-4.4-1.8-9.6-4.6-9.9-9.8c-0.4-6.2,4.9-9.6,7.1-12.9c-27.6,3.4-54,30-17.1,42.7c41.6,14.3,131.3,14.7,175.6,9.2
		C344.2,550.1,395.9,540.1,407.1,533.9L407.1,533.9z"/>
	<path class="st1" d="M434.7,443.6c-5.2,0.2-12.2,1.9-17.5,2.7c-6.1,0.9-12,1.8-18.1,2.6c-36.8,5.2-77.7,9.3-114.5,11.5
		c-28.8,1.7-137.4,5.3-153.6-9.8c-1.2-6.8,6.6-11.1,11.4-13.7c18.6-10,38.4-13.4,56.7-19.1c-25.3-2.4-89,15.8-112.1,30.2
		c-24.9,15.5,16.6,21.7,32.1,23.9c90.9,12.7,175.9,5.9,265.8-6.9c14.7-2.1,17.8-1.2,27.8-7.6C419.6,453,428.6,448.4,434.7,443.6
		L434.7,443.6z"/>
	<path class="st1" d="M120.6,717.3c25.4,10.7,80.6,17.2,109.3,19.5c40.3,3.3,84.6,2.5,124.9-0.3c52.2-3.7,114.1-9.7,160-33
		c10.9-5.6,30.6-18.9,32.5-31.6c-3.3,1.5-6.1,4.5-9.2,6.5c-81,55.7-266,50.4-361.6,43.6L120.6,717.3L120.6,717.3z"/>
	<path class="st1" d="M453.1,421.8c19.8-6.2,42.4-2.1,55,9.1c13.6,12.1,13.7,35.1,3.9,52.9c-13.1,23.7-40.6,44.9-63.4,59.2
		c-3.9,2.5-7.7,4.3-11.1,6.8c14.7-1.6,49.5-17.3,62.8-25.5c16.9-10.5,35.8-25.7,43.6-45.5c11.1-28.1-5.1-49.5-22.3-59.6
		c-9.9-5.8-21.9-9.3-35.8-8.7C475.2,411,457.9,415.3,453.1,421.8L453.1,421.8z"/>
</g>
</svg>
