<?xml version="1.0" encoding="UTF-8"?>
<svg width="144px" height="46px" viewBox="0 0 144 46" version="1.1" xmlns="http://www.w3.org/2000/svg" xmlns:xlink="http://www.w3.org/1999/xlink">
    <!-- Generator: Sketch 54 (76480) - https://sketchapp.com -->
    <title>. / Utilities / Logo / Jurnal / Dark</title>
    <desc>Created with Sketch.</desc>
    <defs>
        <linearGradient x1="29.8099421%" y1="110.566454%" x2="82.7517456%" y2="15.6557601%" id="linearGradient-1">
            <stop stop-color="#009ADD" offset="0%"></stop>
            <stop stop-color="#77DBFF" offset="100%"></stop>
        </linearGradient>
        <linearGradient x1="32.5086395%" y1="49.9972378%" x2="57.1343049%" y2="52.7251968%" id="linearGradient-2">
            <stop stop-color="#009ADD" offset="0%"></stop>
            <stop stop-color="#77DBFF" stop-opacity="0" offset="100%"></stop>
        </linearGradient>
    </defs>
    <g id="Patterns" stroke="none" stroke-width="1" fill="none" fill-rule="evenodd">
        <g id="Template-/-Sidebar" transform="translate(-30.000000, -30.000000)">
            <g id="Sidebar">
                <g id=".-/-Utilities-/-Logo-/-Jurnal-/-Dark" transform="translate(30.000000, 30.000000)">
                    <g id="logo-jurnal">
                        <g id="icon" transform="translate(0.000000, 0.003286)">
                            <path d="M5.87200862,4.91148571 L0.24147651,21.0883714 C-0.312064775,22.6556571 0.0750177943,24.3740857 1.51699945,25.2020857 L1.51699945,25.2020857 C2.95832055,26.0300857 4.61564165,25.5129143 5.73593523,24.2439714 L5.73593523,24.2439714 L12.3011462,16.7946 L18.8663572,24.2439714 C19.9793848,25.5129143 21.6433114,26.0300857 23.085293,25.2020857 L23.085293,25.2020857 C24.5266141,24.3740857 24.9302105,22.6668286 24.3614765,21.0883714 L24.3614765,21.0883714 L18.7534031,5.00085714 C17.8226875,2.0838 15.4149811,-1.0658141e-14 12.3011462,-1.0658141e-14 L12.3011462,-1.0658141e-14 C9.2203389,-1.0658141e-14 6.83112789,2.06145714 5.87200862,4.91148571" id="Fill-49" fill="url(#linearGradient-1)"></path>
                            <polygon id="Fill-52" fill="url(#linearGradient-2)" points="12.3011462 16.7946 16.3965591 21.4419143 19.930504 8.54285714"></polygon>
                        </g>
                        <g id="jurnal" transform="translate(31.293755, 0.000000)" fill="#FFFFFF">
                            <path d="M3.20631193,8.92032 L10.2002202,8.92032 L10.2002202,32.1923771 C10.2002202,34.7052914 9.6532844,36.5584343 8.57262385,37.69792 C7.48469725,38.8466057 5.72102752,39.4288343 3.33181651,39.4288343 C1.96117431,39.4288343 0.842862385,39.3236914 4.26325641e-14,39.1186629 L4.26325641e-14,33.5500343 C4.26325641e-14,33.5500343 1.2893945,33.6840914 1.80198165,33.6840914 C2.22341284,33.6840914 3.21093578,33.6840914 3.21093578,31.6108057 L3.20631193,8.92032 Z M3.20518899,7.19505714 L3.20518899,0 L10.2004183,0 L10.2004183,7.19505714 L3.20518899,7.19505714 Z M35.1004624,8.39953429 L35.1004624,33.5273629 L28.2981138,33.5273629 L28.2981138,30.7811629 L28.294811,30.74042 C26.7134532,32.5909343 24.387655,33.5273629 21.3603523,33.5273629 C15.5950679,33.5273629 12.6714716,30.4683629 12.6714716,24.4344771 L12.6714716,8.39953429 L19.6772697,8.39953429 L19.6772697,23.3133914 C19.6772697,24.7104771 19.9580037,25.7711057 20.5108844,26.4643914 C21.0340404,27.1221914 21.9872147,27.4553629 23.3446459,27.4553629 C24.8348477,27.4553629 25.9736367,27.0367629 26.8244257,26.1759057 C27.6785174,25.31242 28.0940037,24.1709629 28.0940037,22.6851629 L28.0940037,8.39953429 L35.1004624,8.39953429 Z M46.3810789,10.2557657 C47.7305835,9.23325143 50.5247119,8.16342286 52.5948771,8.40788 L52.5948771,15.73108 C52.5948771,15.7323943 51.2156477,15.6239657 51.0934459,15.6127943 C50.4190239,15.5483943 49.7360147,15.5214514 49.0635743,15.6187086 C47.8765651,15.7895657 46.8665835,16.42108 46.1188404,17.3417371 C45.1200881,18.56928 44.6141064,20.0340514 44.6141064,21.6946514 L44.6174092,33.5541086 L37.5713174,33.5541086 L37.5713174,8.92242286 L44.6174092,8.92242286 L44.6174092,11.9557943 C45.1009321,11.35188 45.6861798,10.7827943 46.3810789,10.2557657 Z M75.5581872,10.7916 C76.9922422,12.4081714 77.7188477,14.6983143 77.7188477,17.5982857 L77.7188477,33.5543714 L70.666811,33.5543714 L70.6681321,18.6753429 C70.6681321,17.227 70.3702239,16.1499429 69.7823339,15.4737429 C69.2136,14.8198857 68.2168294,14.4886857 66.8204257,14.4886857 C65.2753982,14.4886857 64.1247193,14.9118857 63.3043156,15.7812857 C62.4865541,16.6480571 62.0717284,17.8631143 62.0717284,19.3929429 L62.0717284,33.5543714 L55.0659303,33.5543714 L55.0659303,8.92005714 L61.8451596,8.92005714 L61.8444991,11.1799714 C63.4820037,9.28542857 65.8916917,8.32665714 69.0306275,8.32665714 C71.9112881,8.32665714 74.1076183,9.15597143 75.5581872,10.7916 Z M95.908822,23.7085971 L95.908822,22.3259686 C94.4840147,22.38314 93.2864367,22.4587114 92.3425101,22.5493971 C91.2981798,22.6512543 90.2921615,22.8405114 89.3541798,23.1132257 C88.4822532,23.3668829 87.8474642,23.7197686 87.4663266,24.1613686 C87.0970789,24.5898257 86.9180697,25.1313114 86.9180697,25.81474 C86.9180697,26.6144829 87.1941798,27.2295686 87.7622532,27.69614 C88.3527853,28.1817686 89.2253725,28.4281971 90.3549138,28.4281971 C92.1892624,28.4281971 93.5902899,27.98594 94.520345,27.1139114 C95.4550239,26.2385971 95.908822,25.12474 95.908822,23.7085971 Z M92.0670606,7.95096857 C99.1699596,7.95096857 102.771941,10.9909114 102.771941,16.98734 L102.771941,33.5539114 L96.1928587,33.5539114 L96.1928587,30.7564543 L96.1921982,30.7465971 C94.4476844,32.6095971 91.8404917,33.55194 88.4181798,33.55194 C85.9259229,33.55194 83.9158679,32.9059686 82.4428404,31.6311114 C80.9486752,30.3391686 80.1903633,28.5024543 80.1903633,26.1728829 C80.1903633,24.8053686 80.4691156,23.5988543 81.0193541,22.5861971 C81.5682716,21.5728829 82.3173358,20.75474 83.2447486,20.1554257 C84.1457394,19.5738543 85.3360514,19.0980829 86.7833174,18.7419114 C88.2015193,18.3936257 89.6672807,18.1485114 91.1396477,18.0124829 C92.4752807,17.88894 94.0777761,17.8081114 95.908822,17.7726257 L95.908822,17.2567686 C95.908822,16.0068829 95.5745835,15.1282829 94.8869505,14.5703686 C94.1761982,13.9947114 92.9693725,13.7022829 91.300822,13.7022829 C89.1844183,13.7022829 86.9761982,14.1425686 84.735611,15.0106543 C84.6576661,15.03694 84.5823633,15.0520543 84.5064,15.0684829 L82.7638679,9.74365429 C82.7658495,9.73905429 82.7665101,9.73642571 82.7684917,9.73182571 C85.5368587,8.54568286 88.655978,7.95096857 92.0670606,7.95096857 Z M105.242994,0.000394285714 L112.248132,0.000394285714 L112.248132,33.5521371 L105.244976,33.5521371 L105.242994,0.000394285714 Z"></path>
                        </g>
                        <g id="by-mekari" transform="translate(94.114416, 36.009786)" fill="#777777">
                            <path d="M3.10921101,7.02098 C3.51941284,7.02098 3.8226055,6.88429429 4.02011009,6.61158 C4.21761468,6.33820857 4.31537615,5.89726571 4.31537615,5.28940857 C4.31537615,4.67432286 4.21761468,4.23009429 4.02011009,3.95672286 C3.8226055,3.68400857 3.51941284,3.54732286 3.10921101,3.54732286 C2.28946789,3.54732286 1.87992661,4.12429429 1.87992661,5.27823714 C1.87992661,6.44006571 2.28946789,7.02098 3.10921101,7.02098 Z M1.82179817,8.38849429 L5.68434189e-14,8.38849429 L5.68434189e-14,6.57142857e-05 L1.89115596,6.57142857e-05 L1.89115596,2.92369429 C2.04638532,2.66215143 2.29343119,2.45646571 2.63361468,2.30598 C2.97379817,2.15615143 3.33379817,2.08123714 3.71229358,2.08123714 C4.52477064,2.08123714 5.14899083,2.35066571 5.58627523,2.88952286 C6.02289908,3.42772286 6.24154128,4.22812286 6.24154128,5.28940857 C6.24154128,6.35135143 6.02289908,7.14978 5.58627523,7.68469429 C5.14899083,8.21895143 4.52477064,8.48640857 3.71229358,8.48640857 C3.32587156,8.48640857 2.9546422,8.40755143 2.59926606,8.24983714 C2.24256881,8.09278 1.98429358,7.87526571 1.82179817,7.59795143 L1.82179817,8.38849429 Z M10.7784661,7.78274 C10.5393468,8.52925429 10.2645578,9.09834 9.95475963,9.37171143 C9.64562202,9.64442571 9.11982385,9.85734 8.37736514,9.85734 C7.83571376,9.85734 7.13553028,9.73116857 7.13553028,9.73116857 L7.13553028,8.38008286 C7.13553028,8.38008286 7.72738349,8.44974 7.86675963,8.44974 C8.12965872,8.44974 8.30602569,8.30976857 8.3952,8.18228286 C8.48305321,8.05611143 8.48503486,7.83268286 8.4004844,7.63225429 L6.2418055,2.23054 L8.20628257,2.23054 L9.1085945,5.02471143 L9.56635596,6.64062571 L9.94286972,5.02471143 L10.6377688,2.23054 L12.5916771,2.23054 L10.7784661,7.78274 Z M23.6630312,2.69566571 C23.9979303,3.09192286 24.1670312,3.65509429 24.1670312,4.37072286 L24.1670312,8.38849429 L22.417233,8.38849429 L22.417233,4.62832286 C22.417233,4.27938 22.351178,4.01849429 22.220389,3.85223714 C22.095545,3.69386571 21.8861505,3.61632286 21.5809761,3.61632286 C21.2401321,3.61632286 20.9792147,3.71883714 20.7817101,3.92780857 C20.5822239,4.14006571 20.4844624,4.40226571 20.4844624,4.72952286 L20.4844624,8.38849429 L18.7472147,8.38849429 L18.7472147,4.61715143 C18.7472147,4.27478 18.6818202,4.01718 18.5543339,3.85092286 C18.4334532,3.69320857 18.2293431,3.61632286 17.932756,3.61632286 C17.5780404,3.61632286 17.3098569,3.72212286 17.1123523,3.93766571 C16.911545,4.15780857 16.814444,4.43840857 16.814444,4.79589429 L16.814444,8.38849429 L16.8124624,8.38849429 L15.0626642,8.38849429 L15.0646459,2.23040857 L16.7794349,2.23040857 L16.7794349,2.79423714 C16.9108844,2.64506571 17.076022,2.50903714 17.2722055,2.38878 C17.5958752,2.18966571 18.0001321,2.08912286 18.4730862,2.08912286 C19.3067009,2.08912286 19.8879853,2.37892286 20.2050495,2.95129429 C20.6330862,2.37892286 21.284389,2.08912286 22.1437651,2.08912286 C22.8122422,2.08912286 23.3228477,2.29349429 23.6630312,2.69566571 Z M26.5013505,4.77742857 L29.0180477,4.77742857 C29.0081394,4.36342857 28.9037725,4.03682857 28.7062679,3.80551429 C28.5014972,3.565 28.2082128,3.44868571 27.8099009,3.44868571 C27.0304514,3.44868571 26.6010936,3.88371429 26.5013505,4.77742857 Z M29.8886532,2.89865714 C30.382745,3.43291429 30.6330936,4.15051429 30.6330936,5.03174286 L30.6330936,5.98 L26.5469284,5.98 C26.6215706,6.32565714 26.7840661,6.59771429 27.0423413,6.80602857 C27.3362862,7.04325714 27.7306349,7.16351429 28.2154789,7.16351429 C28.7108917,7.16351429 29.0471119,7.11225714 29.4910018,6.89145714 C29.4929835,6.89014286 29.4949651,6.89014286 29.4969468,6.88882857 L29.8549651,6.71337143 L30.3087633,7.93762857 C30.1964697,7.9994 30.0868183,8.06774286 29.971222,8.12557143 C29.395222,8.41471429 28.7333505,8.53037143 28.0912954,8.52248571 C27.0628183,8.51131429 26.2450569,8.23728571 25.6631119,7.67345714 C25.0805064,7.10962857 24.7845798,6.31448571 24.7845798,5.31102857 C24.7845798,4.30297143 25.0560661,3.50585714 25.5917725,2.94202857 C26.1301211,2.37622857 26.8686165,2.08905714 27.7874422,2.08905714 C28.6851303,2.08905714 29.3919193,2.36111429 29.8886532,2.89865714 Z M34.0750899,4.99625714 L37.1255119,8.38842857 L34.9879706,8.38842857 L32.9997138,6.16005714 L32.9997138,8.38842857 L31.2505761,8.38842857 L31.2512367,-2.84217094e-14 L33.0010349,-2.84217094e-14 L32.9997138,3.98294286 L34.894833,2.231 L37.0654018,2.23165714 L34.0750899,4.99625714 Z M40.9721615,6.02816857 L40.9721615,5.68316857 C40.6154642,5.69696857 40.3162349,5.71536857 40.0797578,5.73902571 C39.8188404,5.76399714 39.5678312,5.81131143 39.3333358,5.87965429 C39.1146936,5.94274 38.9561615,6.03145429 38.8617028,6.14185429 C38.7692257,6.24896857 38.7243083,6.38434 38.7243083,6.55519714 C38.7243083,6.75431143 38.7930055,6.90874 38.9350239,7.02571143 C39.0829872,7.14662571 39.3009688,7.20839714 39.5830239,7.20839714 C40.0421064,7.20839714 40.3921982,7.09799714 40.6247119,6.87982571 C40.8585468,6.66099714 40.9721615,6.38236857 40.9721615,6.02816857 Z M40.0110606,2.08925429 C41.7866202,2.08925429 42.687611,2.84891143 42.687611,4.34785429 L42.687611,8.38862571 L41.0421798,8.38862571 L41.0421798,7.79062571 L41.0421798,7.78799714 C40.6062165,8.25391143 39.9549138,8.48916857 39.0995009,8.48916857 C38.4766018,8.48916857 37.9732624,8.32751143 37.6053358,8.00945429 C37.2321248,7.68548286 37.0425468,7.22679714 37.0425468,6.64391143 C37.0425468,6.30285429 37.1119046,6.00122571 37.2492991,5.74756857 C37.3866936,5.49456857 37.5736294,5.29019714 37.8061431,5.13971143 C38.0313908,4.99514 38.3286385,4.87554 38.6906202,4.78682571 C39.0453358,4.70008286 39.4119413,4.63831143 39.7792073,4.60414 C40.1134459,4.57325429 40.5144,4.55354 40.9721615,4.54434 L40.9721615,4.41554 C40.9721615,4.10274 40.8882716,3.88325429 40.7158679,3.74394 C40.5388404,3.60002571 40.2369688,3.52642571 39.8201615,3.52642571 C39.2904,3.52642571 38.7381798,3.63682571 38.1786936,3.85368286 C38.1588771,3.86025429 38.1403817,3.86419714 38.1218862,3.86814 L37.6852624,2.53742571 C37.6859229,2.53611143 37.6859229,2.53545429 37.6865835,2.53479714 C38.3788404,2.23711143 39.1582899,2.08925429 40.0110606,2.08925429 Z M45.507633,2.56410571 C45.8451743,2.30782 46.5433761,2.04102 47.0612477,2.10213429 L47.0612477,3.93293429 C47.0612477,3.93293429 46.7164404,3.90599143 46.6853945,3.90336286 C46.5169541,3.88759143 46.3465321,3.88036286 46.1787523,3.90467714 C45.8815046,3.94739143 45.6291743,4.10510571 45.441578,4.33510571 C45.1925505,4.64199143 45.0657248,5.00867714 45.0657248,5.42399143 L45.0670459,8.38836286 L43.3053578,8.38836286 L43.3053578,2.23027714 L45.0670459,2.23027714 L45.0670459,2.98862 C45.1879266,2.83813429 45.3339083,2.69553429 45.507633,2.56410571 Z M47.6790606,8.38875714 L47.6790606,2.23067143 L49.4275376,2.23067143 L49.4275376,8.38875714 L47.6790606,8.38875714 Z M47.6790606,1.79892857 L47.6790606,0.000328571429 L49.4275376,0.000328571429 L49.4275376,1.79892857 L47.6790606,1.79892857 Z"></path>
                        </g>
                    </g>
                </g>
            </g>
        </g>
    </g>
</svg>