<?xml version="1.0" encoding="utf-8"?>
<!-- Generator: Adobe Illustrator 22.0.1, SVG Export Plug-In . SVG Version: 6.00 Build 0)  -->
<svg version="1.1" id="Layer_1" xmlns="http://www.w3.org/2000/svg" xmlns:xlink="http://www.w3.org/1999/xlink" x="0px" y="0px"
	 viewBox="0 0 773 98" style="enable-background:new 0 0 773 98;" xml:space="preserve">
<style type="text/css">
	.st0{fill:#204463;}
</style>
<g>
	<path class="st0" d="M316.8,14.2c-3.7-1.9-7.7-2.9-11.8-3h-16c-4.1,0.1-7.6,3.2-8.3,7.2l-8.3,58.7c-0.3,2,0.3,3.9,1.5,5.4
		c1.3,1.5,3.2,2.3,5.1,2.2c4.2-0.1,7.7-3.1,8.4-7.2l2.3-16.2h7.4l9.6,19.8c1.2,2.3,3.5,3.6,6.1,3.6c1.4,0,2.8-0.4,3.9-1.1
		c2.3-1.3,3.9-3.5,4.3-6.1c0.2-1.4,0-2.8-0.6-4l-7.7-15.9c3.8-2.2,7-5.4,9.4-9.1c2.4-3.7,3.9-7.8,4.7-12.1
		C328.4,26.4,324.8,18.4,316.8,14.2L316.8,14.2z M311.9,36c-0.4,2-1.2,4-2.4,5.7c-2.1,3.2-5.1,4.6-9.6,4.6h-8.2l2.9-20.2h8.7
		c1.8,0,3.6,0.5,5.3,1.3C311.5,29.1,312.6,31.7,311.9,36L311.9,36z M384.9,11.1c-4.1,0.1-7.6,3.2-8.3,7.2l-5.4,38.2
		c0,0.1-2.6,13.3-13.7,13.3c-2.6,0.2-5.2-0.9-7-2.8c-2.9-3.3-2.8-8.8-2.6-10.1l5.4-38.2c0.3-2-0.3-3.9-1.5-5.4
		c-1.3-1.5-3.2-2.3-5.1-2.2c-4.1,0.1-7.6,3.2-8.3,7.2L333,56.5c-0.5,4.5-0.1,9.1,1.2,13.5c3.1,9.6,10.8,14.8,21.7,14.8
		c10.5,0.1,20.2-5.4,25.4-14.5c2.5-4.1,4.1-8.7,4.8-13.4l5.4-38.2c0.3-2-0.3-3.9-1.5-5.4C388.7,11.9,386.8,11.1,384.9,11.1
		L384.9,11.1z M452.1,11.1c-4.2,0.1-7.7,3.1-8.4,7.2l-5,35.4l-21.9-39.2c-1.2-2.1-3.4-3.4-5.8-3.4c-4.2,0.1-7.7,3.1-8.4,7.2
		l-8.3,58.8c-0.3,2,0.3,3.9,1.5,5.4c1.3,1.5,3.2,2.3,5.1,2.2c4.2-0.1,7.7-3.1,8.4-7.2l5-35.4l21.9,39.3c1.2,2.1,3.5,3.4,5.9,3.4
		c4.1-0.1,7.6-3.2,8.3-7.2l8.3-58.8c0.3-2-0.3-3.9-1.5-5.4C455.9,11.9,454.1,11.1,452.1,11.1L452.1,11.1z M522.3,15.6
		c-5.2-2.9-11.1-4.5-17-4.4c-20.2,0-39,16.4-41.8,36.6c-1.5,9.4,1.1,19,7.3,26.3c6.2,7,15.2,11,24.6,10.8c6.3-0.1,12.5-1.6,18.2-4.4
		c3.9-2,5.7-6.4,4.3-10c-0.7-1.7-2-3-3.7-3.7c-2.1-0.7-4.3-0.6-6.3,0.4c-3.3,1.7-7.1,2.6-10.8,2.6c-5.5,0.1-10.7-2.2-14.3-6.2
		c-3.6-4.3-5.2-9.9-4.2-15.4c1.7-12.2,13-22.1,25.2-22.1c3.5-0.1,6.9,0.8,9.9,2.6h0.1c3.7,1.8,8.3,0.6,10.5-2.9
		c1.2-1.7,1.7-3.9,1.3-5.9C525,18,523.9,16.5,522.3,15.6L522.3,15.6z M560.7,69.8H542l7.2-51c0.3-2-0.3-3.9-1.5-5.4
		c-1.3-1.5-3.2-2.3-5.1-2.2c-4.2,0.1-7.7,3.1-8.3,7.2l-8.3,58.8c-0.3,2,0.2,4,1.5,5.4c1.3,1.5,3.2,2.3,5.2,2.3H559
		c4.2-0.1,7.7-3.1,8.4-7.2c0.3-2-0.2-4-1.5-5.5C564.5,70.7,562.6,69.8,560.7,69.8L560.7,69.8z M612.7,11.1
		c-19.4,0-37.5,16.4-40.3,36.6c-1.4,10.3,1.2,19.8,7.3,26.9c5.8,6.7,14.3,10.4,23.1,10.3c19.4,0,37.6-16.4,40.4-36.7
		c1.4-10.2-1.2-19.7-7.3-26.8C630.1,14.7,621.6,11,612.7,11.1L612.7,11.1z M604.4,69.8c-4.9,0.1-9.6-2-12.8-5.7
		c-3.6-4.4-5.2-10.2-4.2-15.9c1.7-12.2,12.3-22.1,23.7-22.1c4.9-0.1,9.7,2,12.9,5.7c3.7,4.4,5.2,10.2,4.2,15.9
		C626.5,59.9,615.8,69.8,604.4,69.8L604.4,69.8z M702.2,11.1c-4.1,0.1-7.6,3.2-8.3,7.2l-5.4,38.2c0,0.1-2.6,13.3-13.6,13.3
		c-2.6,0.2-5.2-0.9-7-2.8c-2.9-3.3-2.8-8.8-2.6-10.1l5.4-38.2c0.3-2-0.3-3.9-1.5-5.4c-1.3-1.5-3.2-2.3-5.1-2.2
		c-4.1,0.1-7.6,3.2-8.3,7.2l-5.4,38.1c-0.5,4.5-0.1,9.1,1.2,13.5c3.1,9.6,10.8,14.8,21.7,14.8c10.5,0.1,20.2-5.4,25.4-14.5
		c2.5-4.1,4.1-8.7,4.8-13.4l5.4-38.2c0.3-2-0.3-3.9-1.5-5.4C706,11.9,704.1,11.1,702.2,11.1L702.2,11.1z M745.4,11.1h-17.2
		c-4.1,0.1-7.6,3.2-8.3,7.2l-8.3,58.8c-0.3,1.9,0.2,3.9,1.5,5.4c1.3,1.5,3.2,2.3,5.1,2.2h17.1c1.3,0,31.4-0.4,36.5-36.6
		c1.7-12-0.3-21.4-6-28C758.2,11.4,746.7,11.2,745.4,11.1L745.4,11.1z M746,67c-2.7,1.6-5.8,2.6-9,2.8h-9.3l6.2-43.6h9.8
		c2.7,0.2,5.4,1.1,7.7,2.6c5,3.3,6.8,9.7,5.5,19.1S751.9,63.6,746,67L746,67z"/>
	<path class="st0" d="M189.6,33.5L189.6,33.5c-2.9,0-5.2,2.3-5.2,5.2s2.3,5.2,5.2,5.2h0.1c2.7-0.1,4.9-2.4,4.9-5.2
		S192.3,33.7,189.6,33.5L189.6,33.5z M199.5,18.1c0,1.4-0.5,2.7-1.5,3.7c-1,1-2.3,1.5-3.7,1.5h-18c-2.8,0-5.2-2.3-5.2-5.2
		s2.3-5.2,5.2-5.2h18C197.2,12.9,199.5,15.2,199.5,18.1L199.5,18.1z M217.1,33.6h-6.4c-1.8,0-3.5,1-4.5,2.6s-0.9,3.6,0,5.2
		c0.9,1.6,2.6,2.6,4.5,2.6h6.4c2.9,0,5.2-2.3,5.2-5.2C222.3,35.9,220,33.5,217.1,33.6L217.1,33.6z M217.6,59.3
		c0,1.4-0.5,2.7-1.5,3.6s-2.3,1.5-3.6,1.5h-54.5c-2.9,0-5.2,2.3-5.2,5.2s2.3,5.2,5.2,5.2h37.5c1.8,0,3.5,1,4.5,2.6s0.9,3.6,0,5.2
		s-2.6,2.6-4.5,2.6h-22.9c-0.6,0.8-1.2,1.6-1.8,2.4c-4.9,5.8-11.7,9.4-19.2,10.3h-126C11.7,97.9,0.3,86.9,0,73.1
		c-0.3-13.8,10.4-25.3,24.2-25.9c0-11.5,5.9-22.1,15.7-28.2s22-6.6,32.2-1.4C80.1,7.4,92,1,104.9,0.1s25.6,3.8,34.8,12.9h16.3
		c1.8,0,3.5,1,4.5,2.6s0.9,3.6,0,5.2s-2.6,2.6-4.5,2.6h-16.6c-1.9-0.1-3.7,0.9-4.7,2.5s-1,3.7,0,5.3s2.8,2.6,4.7,2.5h29.8
		c2.8,0,5.2,2.3,5.2,5.2s-2.3,5.2-5.2,5.2h-24.5c-2.9,0-5.2,2.3-5.2,5.2s2.3,5.2,5.2,5.2h67.7C215.2,54.2,217.6,56.5,217.6,59.3
		L217.6,59.3z"/>
</g>
</svg>
